<?xml version="1.0" encoding="UTF-8"?>
<svg xmlns="http://www.w3.org/2000/svg" width="900" height="1300" viewBox="0 0 900 1300">
<defs>
  <radialGradient id="skinC" cx="50%" cy="38%" r="56%">
    <stop offset="0%" stop-color="#C89870"/>
    <stop offset="100%" stop-color="#A07848"/>
  </radialGradient>
  <radialGradient id="childGlow" cx="50%" cy="45%" r="52%">
    <stop offset="0%" stop-color="#FFF8E8" stop-opacity="0.8"/>
    <stop offset="60%" stop-color="#FFE890" stop-opacity="0.4"/>
    <stop offset="100%" stop-color="#FFD060" stop-opacity="0"/>
  </radialGradient>
  <radialGradient id="lotusGrad" cx="50%" cy="50%" r="50%">
    <stop offset="0%" stop-color="#FFF0E8"/>
    <stop offset="100%" stop-color="#F8D8B0"/>
  </radialGradient>
  <linearGradient id="bgC" x1="0%" y1="0%" x2="0%" y2="100%">
    <stop offset="0%" stop-color="#FBF4E8"/>
    <stop offset="100%" stop-color="#EEE2CC"/>
  </linearGradient>
  <linearGradient id="dressGrad" x1="0%" y1="0%" x2="100%" y2="100%">
    <stop offset="0%" stop-color="#C01020"/>
    <stop offset="100%" stop-color="#880818"/>
  </linearGradient>
</defs>

<!-- Background -->
<rect width="900" height="1300" fill="url(#bgC)"/>
<rect x="0" y="0" width="900" height="6" fill="#880818"/>
<rect x="0" y="1294" width="900" height="6" fill="#880818"/>

<!-- Subtle warm radiance on background -->
<ellipse cx="280" cy="500" rx="280" ry="500" fill="#FFE890" opacity="0.08"/>

<!-- Header -->
<rect x="0" y="0" width="900" height="95" fill="#1A0800"/>
<text x="450" y="42" font-family="Georgia, serif" font-size="28" fill="#FFD060" text-anchor="middle" letter-spacing="6">THE KUMARI CHILD</text>
<text x="450" y="72" font-family="Georgia, serif" font-size="15" fill="#A08040" text-anchor="middle" letter-spacing="3">CHARACTER REFERENCE SHEET — THE KING'S REGRET</text>

<!-- ═══════════════════════════════ AURA ═══════════════════════════════ -->
<ellipse cx="280" cy="490" rx="210" ry="390" fill="#FFE890" opacity="0.07"/>
<ellipse cx="280" cy="490" rx="175" ry="330" fill="#FFF0B0" opacity="0.09"/>
<ellipse cx="280" cy="490" rx="140" ry="270" fill="#FFF8D0" opacity="0.12"/>

<!-- Light rays -->
<path d="M280,210 L230,130" stroke="#FFD060" stroke-width="1.5" opacity="0.3"/>
<path d="M280,210 L180,180" stroke="#FFD060" stroke-width="1" opacity="0.22"/>
<path d="M280,210 L330,130" stroke="#FFD060" stroke-width="1.5" opacity="0.3"/>
<path d="M280,210 L380,180" stroke="#FFD060" stroke-width="1" opacity="0.22"/>
<path d="M280,210 L280,118" stroke="#FFD060" stroke-width="2" opacity="0.35"/>

<!-- ═══════════════════════════════ MAIN FIGURE ═══════════════════════════════ -->

<!-- Shadow (very soft) -->
<ellipse cx="275" cy="892" rx="85" ry="14" fill="#D4C090" opacity="0.4"/>

<!-- FEET — small, traditional sandals visible -->
<ellipse cx="242" cy="884" rx="30" ry="10" fill="#C89870"/>
<!-- Sandal strap -->
<path d="M225,882 Q242,876 259,882" stroke="#8B6030" stroke-width="3" fill="none"/>
<path d="M233,879 Q242,874 251,879" stroke="#8B6030" stroke-width="2" fill="none"/>

<ellipse cx="312" cy="884" rx="28" ry="10" fill="#B88860"/>
<path d="M296,882 Q312,876 328,882" stroke="#8B6030" stroke-width="3" fill="none"/>
<path d="M304,879 Q312,874 320,879" stroke="#8B6030" stroke-width="2" fill="none"/>

<!-- LOWER DRESS — layered, ornate traditional Kumari dress -->
<!-- Back layer -->
<path d="M178,552 Q160,700 170,882 L390,882 Q400,700 382,552 Z" fill="#880818" opacity="0.6"/>
<!-- Main dress -->
<path d="M185,552 Q170,700 178,882 L382,882 Q390,700 375,552 Z" fill="url(#dressGrad)"/>
<!-- Front overlay panel -->
<path d="M210,552 Q200,650 205,780 L355,780 Q360,650 350,552 Z" fill="#C01020" opacity="0.7"/>
<!-- Dress hem border gold -->
<path d="M170,848 Q280,864 390,848" stroke="#D4AF37" stroke-width="5" fill="none"/>
<path d="M172,858 Q280,873 388,858" stroke="#D4AF37" stroke-width="2" fill="none"/>
<!-- Gold hem pattern -->
<path d="M175,842 Q280,856 385,842" stroke="#FFD060" stroke-width="1.5" fill="none" opacity="0.6"/>
<!-- Dress vertical gold lines -->
<path d="M210,552 L205,780" stroke="#D4AF37" stroke-width="2" fill="none" opacity="0.6"/>
<path d="M350,552 L355,780" stroke="#D4AF37" stroke-width="2" fill="none" opacity="0.6"/>
<path d="M238,552 L232,780" stroke="#D4AF37" stroke-width="1" fill="none" opacity="0.4"/>
<path d="M322,552 L328,780" stroke="#D4AF37" stroke-width="1" fill="none" opacity="0.4"/>
<!-- Horizontal rows (dress pattern) -->
<path d="M188,600 Q280,608 372,600" stroke="#FFD060" stroke-width="1" fill="none" opacity="0.35"/>
<path d="M187,640 Q280,648 373,640" stroke="#FFD060" stroke-width="1" fill="none" opacity="0.35"/>
<path d="M186,680 Q280,688 374,680" stroke="#FFD060" stroke-width="1" fill="none" opacity="0.35"/>
<path d="M185,720 Q280,728 375,720" stroke="#FFD060" stroke-width="1" fill="none" opacity="0.35"/>
<path d="M184,760 Q280,768 376,760" stroke="#FFD060" stroke-width="1" fill="none" opacity="0.35"/>

<!-- ARMS — small, delicate child arms -->
<!-- Right arm -->
<path d="M193,385 Q166,440 155,510" stroke="#C01020" stroke-width="26" fill="none" stroke-linecap="round"/>
<!-- Glow on sleeve -->
<path d="M193,385 Q166,440 155,510" stroke="#FFD060" stroke-width="6" fill="none" stroke-linecap="round" opacity="0.2"/>

<!-- Left arm (viewer right) -->
<path d="M367,385 Q394,440 402,510" stroke="#C01020" stroke-width="26" fill="none" stroke-linecap="round"/>
<path d="M367,385 Q394,440 402,510" stroke="#FFD060" stroke-width="6" fill="none" stroke-linecap="round" opacity="0.2"/>

<!-- HANDS — small child hands holding lotus token -->
<!-- Right hand cupped -->
<ellipse cx="148" cy="523" rx="19" ry="13" fill="url(#skinC)"/>
<path d="M134,516 Q124,500 130,492" stroke="#C09060" stroke-width="7" fill="none" stroke-linecap="round"/>
<path d="M143,512 Q135,495 141,488" stroke="#C09060" stroke-width="7" fill="none" stroke-linecap="round"/>
<path d="M153,510 Q148,492 155,485" stroke="#C09060" stroke-width="7" fill="none" stroke-linecap="round"/>
<path d="M162,513 Q161,496 167,490" stroke="#C09060" stroke-width="7" fill="none" stroke-linecap="round"/>
<!-- Light from token on hands -->
<ellipse cx="148" cy="510" rx="22" ry="12" fill="#FFD060" opacity="0.18"/>

<!-- Left hand cupped (holding token) -->
<ellipse cx="412" cy="523" rx="19" ry="13" fill="url(#skinC)"/>
<path d="M426,516 Q436,500 430,492" stroke="#C09060" stroke-width="7" fill="none" stroke-linecap="round"/>
<path d="M417,512 Q425,495 419,488" stroke="#C09060" stroke-width="7" fill="none" stroke-linecap="round"/>
<path d="M407,510 Q412,492 405,485" stroke="#C09060" stroke-width="7" fill="none" stroke-linecap="round"/>
<path d="M398,513 Q399,496 393,490" stroke="#C09060" stroke-width="7" fill="none" stroke-linecap="round"/>
<ellipse cx="412" cy="510" rx="22" ry="12" fill="#FFD060" opacity="0.18"/>

<!-- ═══════════ LOTUS TOKEN (held between hands) ═══════════ -->
<circle cx="280" cy="508" r="34" fill="#FFE890" opacity="0.4"/>
<circle cx="280" cy="508" r="24" fill="url(#lotusGrad)"/>
<!-- Lotus petals -->
<ellipse cx="280" cy="488" rx="9" ry="16" fill="#FFF0E0" transform="rotate(0,280,508)"/>
<ellipse cx="280" cy="488" rx="9" ry="16" fill="#FFF0E0" transform="rotate(45,280,508)"/>
<ellipse cx="280" cy="488" rx="9" ry="16" fill="#FFF0E0" transform="rotate(90,280,508)"/>
<ellipse cx="280" cy="488" rx="9" ry="16" fill="#FFF0E0" transform="rotate(135,280,508)"/>
<ellipse cx="280" cy="488" rx="9" ry="16" fill="#FFF0E0" transform="rotate(180,280,508)"/>
<ellipse cx="280" cy="488" rx="9" ry="16" fill="#FFF0E0" transform="rotate(225,280,508)"/>
<ellipse cx="280" cy="488" rx="9" ry="16" fill="#FFF0E0" transform="rotate(270,280,508)"/>
<ellipse cx="280" cy="488" rx="9" ry="16" fill="#FFF0E0" transform="rotate(315,280,508)"/>
<!-- Petal gold edges -->
<ellipse cx="280" cy="488" rx="9" ry="16" fill="none" stroke="#D4AF37" stroke-width="1" transform="rotate(0,280,508)"/>
<ellipse cx="280" cy="488" rx="9" ry="16" fill="none" stroke="#D4AF37" stroke-width="1" transform="rotate(45,280,508)"/>
<ellipse cx="280" cy="488" rx="9" ry="16" fill="none" stroke="#D4AF37" stroke-width="1" transform="rotate(90,280,508)"/>
<ellipse cx="280" cy="488" rx="9" ry="16" fill="none" stroke="#D4AF37" stroke-width="1" transform="rotate(135,280,508)"/>
<ellipse cx="280" cy="488" rx="9" ry="16" fill="none" stroke="#D4AF37" stroke-width="1" transform="rotate(180,280,508)"/>
<ellipse cx="280" cy="488" rx="9" ry="16" fill="none" stroke="#D4AF37" stroke-width="1" transform="rotate(225,280,508)"/>
<ellipse cx="280" cy="488" rx="9" ry="16" fill="none" stroke="#D4AF37" stroke-width="1" transform="rotate(270,280,508)"/>
<ellipse cx="280" cy="488" rx="9" ry="16" fill="none" stroke="#D4AF37" stroke-width="1" transform="rotate(315,280,508)"/>
<!-- Center -->
<circle cx="280" cy="508" r="9" fill="#D4AF37"/>
<circle cx="280" cy="508" r="6" fill="#FFD060"/>
<circle cx="280" cy="508" r="3" fill="#FFF0A0"/>
<!-- Token glow -->
<circle cx="280" cy="508" r="38" fill="#FFE060" opacity="0.15"/>

<!-- TORSO / UPPER DRESS -->
<path d="M195,365 L185,552 L375,552 L365,365 Q338,380 280,374 Q220,380 195,365 Z" fill="url(#dressGrad)"/>
<!-- Upper chest ornament panel -->
<path d="M228,375 Q280,390 332,375 L325,460 Q280,475 235,460 Z" fill="#C01020" opacity="0.6"/>
<!-- Central chest ornament -->
<circle cx="280" cy="410" r="14" fill="#D4AF37"/>
<circle cx="280" cy="410" r="10" fill="#FFD060"/>
<circle cx="280" cy="410" r="5" fill="#D4AF37"/>
<circle cx="280" cy="410" r="3" fill="#FFF0A0"/>
<!-- Gold neckline trim -->
<path d="M215,375 Q248,362 280,358 Q312,362 345,375" stroke="#D4AF37" stroke-width="4" fill="none"/>
<!-- Garment glow overlay -->
<path d="M195,365 L185,552 L375,552 L365,365" fill="url(#childGlow)" opacity="0.2"/>

<!-- NECKLACE / COLLAR ORNAMENTS -->
<path d="M225,360 Q255,372 280,367 Q305,372 335,360" stroke="#D4AF37" stroke-width="3.5" fill="none"/>
<circle cx="280" cy="370" r="6" fill="#D4AF37"/>
<circle cx="280" cy="370" r="3.5" fill="#FFD060"/>
<circle cx="265" cy="365" r="4" fill="#D4AF37"/>
<circle cx="295" cy="365" r="4" fill="#D4AF37"/>
<circle cx="250" cy="360" r="3.5" fill="#D4AF37"/>
<circle cx="310" cy="360" r="3.5" fill="#D4AF37"/>

<!-- NECK — short child neck -->
<path d="M260,295 Q252,308 252,318 L308,318 Q308,308 300,295 Z" fill="url(#skinC)"/>

<!-- HEAD — slightly larger proportionally (child) -->
<circle cx="280" cy="230" r="90" fill="url(#skinC)"/>
<!-- Child glow on face -->
<circle cx="280" cy="220" r="78" fill="#FFF8E0" opacity="0.1"/>

<!-- EARS -->
<ellipse cx="190" cy="235" rx="13" ry="17" fill="#C89870"/>
<!-- Elaborate earring (Kumari style) -->
<circle cx="190" cy="246" r="8" fill="#D4AF37"/>
<circle cx="190" cy="246" r="5" fill="#FFD060"/>
<path d="M186,254 Q190,265 190,274" stroke="#D4AF37" stroke-width="2.5" fill="none"/>
<circle cx="190" cy="277" r="6" fill="#D4AF37"/>
<circle cx="190" cy="277" r="3.5" fill="#FFD060"/>
<path d="M188,283 L186,294" stroke="#D4AF37" stroke-width="2" fill="none"/>
<circle cx="186" cy="297" r="4" fill="#D4AF37"/>

<ellipse cx="370" cy="235" rx="13" ry="17" fill="#C89870"/>
<circle cx="370" cy="246" r="8" fill="#D4AF37"/>
<circle cx="370" cy="246" r="5" fill="#FFD060"/>
<path d="M366,254 Q370,265 370,274" stroke="#D4AF37" stroke-width="2.5" fill="none"/>
<circle cx="370" cy="277" r="6" fill="#D4AF37"/>
<circle cx="370" cy="277" r="3.5" fill="#FFD060"/>
<path d="M368,283 L366,294" stroke="#D4AF37" stroke-width="2" fill="none"/>
<circle cx="366" cy="297" r="4" fill="#D4AF37"/>

<!-- HAIR — elaborate Kumari updo, decorated -->
<!-- Hair base -->
<path d="M193,210 Q198,175 215,155 Q238,130 265,122 Q280,118 295,122 Q322,130 345,155 Q362,175 367,210" fill="#0D0500"/>
<!-- Hair ornament base (top-knot style) -->
<ellipse cx="280" cy="125" rx="42" ry="25" fill="#1A0800"/>
<!-- Elaborate crown-like hair ornament -->
<path d="M242,125 L238,100 L255,82 L275,70 L280,65 L285,70 L305,82 L322,100 L318,125 Z" fill="#1A0800"/>
<path d="M244,125 L241,103 L257,85 L276,73 L280,68 L284,73 L303,85 L319,103 L316,125 Z" fill="#C01020"/>
<!-- Hair ornament gold details -->
<path d="M244,120 L244,103 L258,88" stroke="#D4AF37" stroke-width="2.5" fill="none"/>
<path d="M316,120 L316,103 L302,88" stroke="#D4AF37" stroke-width="2.5" fill="none"/>
<!-- Crown top gems -->
<circle cx="260" cy="88" r="6" fill="#D4AF37"/>
<circle cx="260" cy="88" r="3.5" fill="#FFD060"/>
<circle cx="280" cy="74" r="7" fill="#D4AF37"/>
<circle cx="280" cy="74" r="4" fill="#FFD060"/>
<circle cx="300" cy="88" r="6" fill="#D4AF37"/>
<circle cx="300" cy="88" r="3.5" fill="#FFD060"/>
<!-- Crown top finial -->
<path d="M277,65 L280,44 L283,65 Z" fill="#D4AF37"/>
<circle cx="280" cy="40" r="6" fill="#D4AF37"/>
<circle cx="280" cy="40" r="3.5" fill="#FFD060"/>
<!-- Hair band gems -->
<circle cx="248" cy="125" r="4" fill="#D4AF37"/>
<circle cx="264" cy="122" r="4" fill="#C0392B"/>
<circle cx="280" cy="121" r="5" fill="#D4AF37"/>
<circle cx="296" cy="122" r="4" fill="#C0392B"/>
<circle cx="312" cy="125" r="4" fill="#D4AF37"/>
<!-- Side hair ornament flowers -->
<circle cx="200" cy="190" r="10" fill="#C01020"/>
<circle cx="200" cy="190" r="6" fill="#D4AF37"/>
<circle cx="200" cy="190" r="3" fill="#FFD060"/>
<circle cx="360" cy="190" r="10" fill="#C01020"/>
<circle cx="360" cy="190" r="6" fill="#D4AF37"/>
<circle cx="360" cy="190" r="3" fill="#FFD060"/>

<!-- FACE FEATURES -->
<!-- Eyebrows — young, gentle arches -->
<path d="M234,195 Q248,188 262,193" stroke="#2A1200" stroke-width="4" fill="none" stroke-linecap="round"/>
<path d="M298,193 Q312,188 326,195" stroke="#2A1200" stroke-width="4" fill="none" stroke-linecap="round"/>

<!-- EYES — large, kohl-rimmed, Kumari formal makeup -->
<!-- Right eye -->
<ellipse cx="250" cy="213" rx="16" ry="13" fill="white"/>
<ellipse cx="251" cy="213" rx="11" ry="10" fill="#2A1800"/>
<circle cx="252" cy="211" r="6" fill="#0A0400"/>
<circle cx="255" cy="208" r="3" fill="white" opacity="0.95"/>
<!-- Kohl upper -->
<path d="M234,209 Q250,200 266,209" stroke="#0A0400" stroke-width="2" fill="none"/>
<path d="M234,217 Q250,224 266,217" stroke="#0A0400" stroke-width="1.5" fill="none"/>
<!-- Extended kohl lines (traditional Kumari makeup) -->
<path d="M234,209 Q226,204 218,197" stroke="#0A0400" stroke-width="2.5" fill="none"/>
<!-- Eye glow -->
<ellipse cx="250" cy="213" rx="18" ry="15" fill="#FFE87A" opacity="0.1"/>

<!-- Left eye -->
<ellipse cx="310" cy="213" rx="16" ry="13" fill="white"/>
<ellipse cx="311" cy="213" rx="11" ry="10" fill="#2A1800"/>
<circle cx="312" cy="211" r="6" fill="#0A0400"/>
<circle cx="315" cy="208" r="3" fill="white" opacity="0.95"/>
<path d="M294,209 Q310,200 326,209" stroke="#0A0400" stroke-width="2" fill="none"/>
<path d="M294,217 Q310,224 326,217" stroke="#0A0400" stroke-width="1.5" fill="none"/>
<path d="M326,209 Q334,204 342,197" stroke="#0A0400" stroke-width="2.5" fill="none"/>
<ellipse cx="310" cy="213" rx="18" ry="15" fill="#FFE87A" opacity="0.1"/>

<!-- NOSE — small, child -->
<path d="M280,222 L276,235 Q280,239 284,235 L280,222" fill="#B07848"/>
<ellipse cx="274" cy="236" rx="5" ry="3.5" fill="#A06838"/>
<ellipse cx="286" cy="236" rx="5" ry="3.5" fill="#A06838"/>

<!-- MOUTH — small, serene, slight upward curve -->
<path d="M268,255 Q280,261 292,255" stroke="#8B3820" stroke-width="2.5" fill="none" stroke-linecap="round"/>
<path d="M272,258 Q280,264 288,258" fill="#9B4830" opacity="0.45"/>

<!-- BINDI — elaborate, central, with decorative marks -->
<circle cx="280" cy="186" r="9" fill="#C0392B"/>
<circle cx="280" cy="186" r="6" fill="#E74C3C"/>
<circle cx="280" cy="186" r="3" fill="#FFB0A0"/>
<!-- Decorative lines from bindi -->
<path d="M280,177 L280,170" stroke="#D4AF37" stroke-width="2" fill="none"/>
<path d="M275,178 L271,173" stroke="#D4AF37" stroke-width="1.5" fill="none"/>
<path d="M285,178 L289,173" stroke="#D4AF37" stroke-width="1.5" fill="none"/>

<!-- Cheek glow (child luminescence) -->
<circle cx="230" cy="232" r="20" fill="#FFE890" opacity="0.2"/>
<circle cx="330" cy="232" r="20" fill="#FFE890" opacity="0.2"/>
<!-- Cheek decoration (ceremonial dots) -->
<circle cx="222" cy="238" r="3" fill="#C0392B" opacity="0.7"/>
<circle cx="338" cy="238" r="3" fill="#C0392B" opacity="0.7"/>

<!-- ═══════════════════════════════ EXPRESSIONS ═══════════════════════════════ -->
<text x="690" y="135" font-family="Georgia, serif" font-size="14" fill="#6A3010" text-anchor="middle" letter-spacing="2">EXPRESSION STUDIES</text>
<line x1="610" y1="145" x2="770" y2="145" stroke="#D4AF37" stroke-width="1"/>

<!-- Expr 1: SERENE (resting, ritually calm) -->
<circle cx="650" cy="250" r="68" fill="#FFF8E8" stroke="#D4AF37" stroke-width="2"/>
<ellipse cx="650" cy="250" rx="58" ry="60" fill="#FFE890" opacity="0.15"/>
<text x="650" y="332" font-family="Georgia, serif" font-size="11" fill="#6A3010" text-anchor="middle">SERENE</text>
<text x="650" y="346" font-family="Georgia, serif" font-size="9" fill="#A07030" text-anchor="middle">resting, ritual calm</text>
<circle cx="650" cy="238" rx="44" cy="238" r="44" fill="url(#skinC)"/>
<ellipse cx="636" cy="228" rx="13" ry="11" fill="white"/>
<circle cx="636" cy="230" r="8" fill="#2A1800"/>
<circle cx="636" cy="228" r="4.5" fill="#0A0400"/>
<circle cx="639" cy="225" r="2.5" fill="white"/>
<ellipse cx="664" cy="228" rx="13" ry="11" fill="white"/>
<circle cx="664" cy="230" r="8" fill="#2A1800"/>
<circle cx="664" cy="228" r="4.5" fill="#0A0400"/>
<circle cx="667" cy="225" r="2.5" fill="white"/>
<path d="M624,217 Q636,211 648,215" stroke="#2A1200" stroke-width="3.5" fill="none" stroke-linecap="round"/>
<path d="M652,215 Q664,211 676,217" stroke="#2A1200" stroke-width="3.5" fill="none" stroke-linecap="round"/>
<!-- Relaxed gentle smile -->
<path d="M640,256 Q650,262 660,256" stroke="#8B3820" stroke-width="2.5" fill="none" stroke-linecap="round"/>
<path d="M650,232 L647,243 Q650,247 653,243 L650,232" fill="#B07848"/>
<circle cx="650" cy="208" r="6" fill="#C0392B"/>
<circle cx="650" cy="208" r="3.5" fill="#E74C3C"/>
<!-- Cheek glow -->
<circle cx="628" cy="242" r="13" fill="#FFE890" opacity="0.25"/>
<circle cx="672" cy="242" r="13" fill="#FFE890" opacity="0.25"/>

<!-- Expr 2: PURPOSEFUL WALK -->
<circle cx="760" cy="250" r="68" fill="#FFF4E0" stroke="#D4AF37" stroke-width="2"/>
<text x="760" y="332" font-family="Georgia, serif" font-size="11" fill="#6A3010" text-anchor="middle">PURPOSEFUL</text>
<text x="760" y="346" font-family="Georgia, serif" font-size="9" fill="#A07030" text-anchor="middle">walking — Act 4, 4:11</text>
<circle cx="760" cy="238" r="44" fill="url(#skinC)"/>
<!-- Eyes focused slightly downward/forward -->
<ellipse cx="746" cy="229" rx="13" ry="10" fill="white"/>
<circle cx="747" cy="231" r="8" fill="#2A1800"/>
<circle cx="747" cy="229" r="4.5" fill="#0A0400"/>
<circle cx="750" cy="226" r="2.5" fill="white"/>
<ellipse cx="774" cy="229" rx="13" ry="10" fill="white"/>
<circle cx="775" cy="231" r="8" fill="#2A1800"/>
<circle cx="775" cy="229" r="4.5" fill="#0A0400"/>
<circle cx="778" cy="226" r="2.5" fill="white"/>
<path d="M734,218 Q746,212 758,217" stroke="#2A1200" stroke-width="3.5" fill="none" stroke-linecap="round"/>
<path d="M762,217 Q774,212 786,218" stroke="#2A1200" stroke-width="3.5" fill="none" stroke-linecap="round"/>
<!-- Calm neutral mouth -->
<path d="M750,255 Q760,260 770,255" stroke="#8B3820" stroke-width="2.5" fill="none" stroke-linecap="round"/>
<path d="M760,232 L757,242 Q760,246 763,242 L760,232" fill="#B07848"/>
<circle cx="760" cy="208" r="6" fill="#C0392B"/>
<circle cx="760" cy="208" r="3.5" fill="#E74C3C"/>
<!-- Token glow reflected on face -->
<ellipse cx="760" cy="280" rx="30" ry="20" fill="#FFE890" opacity="0.22"/>

<!-- ═══════════════════════════════ TOKEN CLOSE-UP ═══════════════════════════════ -->
<rect x="510" y="390" width="370" height="310" rx="6" fill="#FFF4E0" stroke="#D4AF37" stroke-width="2"/>
<text x="695" y="415" font-family="Georgia, serif" font-size="13" fill="#4A2A08" text-anchor="middle" font-weight="bold" letter-spacing="1">THE TOKEN — LOTUS</text>
<text x="695" y="433" font-family="Georgia, serif" font-size="10" fill="#8A6028" text-anchor="middle">recurring prop · links all 4 acts</text>
<line x1="530" y1="440" x2="860" y2="440" stroke="#D4AF37" stroke-width="1" opacity="0.5"/>

<!-- Large lotus token illustration -->
<circle cx="695" cy="560" r="85" fill="#FFF8E8" opacity="0.6"/>
<circle cx="695" cy="560" r="70" fill="#FFF0D0"/>
<!-- Petals - 8 outer -->
<ellipse cx="695" cy="498" rx="18" ry="32" fill="#FFEBD0" stroke="#D4AF37" stroke-width="1.5" transform="rotate(0,695,560)"/>
<ellipse cx="695" cy="498" rx="18" ry="32" fill="#FFEBD0" stroke="#D4AF37" stroke-width="1.5" transform="rotate(45,695,560)"/>
<ellipse cx="695" cy="498" rx="18" ry="32" fill="#FFEBD0" stroke="#D4AF37" stroke-width="1.5" transform="rotate(90,695,560)"/>
<ellipse cx="695" cy="498" rx="18" ry="32" fill="#FFEBD0" stroke="#D4AF37" stroke-width="1.5" transform="rotate(135,695,560)"/>
<ellipse cx="695" cy="498" rx="18" ry="32" fill="#FFEBD0" stroke="#D4AF37" stroke-width="1.5" transform="rotate(180,695,560)"/>
<ellipse cx="695" cy="498" rx="18" ry="32" fill="#FFEBD0" stroke="#D4AF37" stroke-width="1.5" transform="rotate(225,695,560)"/>
<ellipse cx="695" cy="498" rx="18" ry="32" fill="#FFEBD0" stroke="#D4AF37" stroke-width="1.5" transform="rotate(270,695,560)"/>
<ellipse cx="695" cy="498" rx="18" ry="32" fill="#FFEBD0" stroke="#D4AF37" stroke-width="1.5" transform="rotate(315,695,560)"/>
<!-- Inner petals - 8 -->
<ellipse cx="695" cy="520" rx="11" ry="20" fill="#FFE0B8" stroke="#D4AF37" stroke-width="1" transform="rotate(22.5,695,560)"/>
<ellipse cx="695" cy="520" rx="11" ry="20" fill="#FFE0B8" stroke="#D4AF37" stroke-width="1" transform="rotate(67.5,695,560)"/>
<ellipse cx="695" cy="520" rx="11" ry="20" fill="#FFE0B8" stroke="#D4AF37" stroke-width="1" transform="rotate(112.5,695,560)"/>
<ellipse cx="695" cy="520" rx="11" ry="20" fill="#FFE0B8" stroke="#D4AF37" stroke-width="1" transform="rotate(157.5,695,560)"/>
<ellipse cx="695" cy="520" rx="11" ry="20" fill="#FFE0B8" stroke="#D4AF37" stroke-width="1" transform="rotate(202.5,695,560)"/>
<ellipse cx="695" cy="520" rx="11" ry="20" fill="#FFE0B8" stroke="#D4AF37" stroke-width="1" transform="rotate(247.5,695,560)"/>
<ellipse cx="695" cy="520" rx="11" ry="20" fill="#FFE0B8" stroke="#D4AF37" stroke-width="1" transform="rotate(292.5,695,560)"/>
<ellipse cx="695" cy="520" rx="11" ry="20" fill="#FFE0B8" stroke="#D4AF37" stroke-width="1" transform="rotate(337.5,695,560)"/>
<!-- Center -->
<circle cx="695" cy="560" r="22" fill="#D4AF37"/>
<circle cx="695" cy="560" r="16" fill="#FFD060"/>
<circle cx="695" cy="560" r="9" fill="#D4AF37"/>
<circle cx="695" cy="560" r="5" fill="#FFF0A0"/>
<!-- Token glow -->
<circle cx="695" cy="560" r="90" fill="#FFE890" opacity="0.12"/>

<!-- Token notes -->
<text x="530" y="688" font-family="Georgia, serif" font-size="11" fill="#5A3A1A">• Carved wood or gold — warm, sacred material</text>
<text x="530" y="704" font-family="Georgia, serif" font-size="11" fill="#5A3A1A">• Act 1: sits quietly on game board, barely noticed</text>
<text x="530" y="720" font-family="Georgia, serif" font-size="11" fill="#5A3A1A">• Act 2: falls as Taleju fades — weighted, intentional</text>
<text x="530" y="736" font-family="Georgia, serif" font-size="11" fill="#5A3A1A">• Act 3: King stares at the empty space where it was</text>
<text x="530" y="752" font-family="Georgia, serif" font-size="11" fill="#5A3A1A">• Act 4: Child carries it — full circle, renewed</text>
<text x="530" y="772" font-family="Georgia, serif" font-size="11" fill="#C8921A" font-style="italic">  "The token is not magic — it is meaning."</text>

<!-- DESIGN NOTES -->
<rect x="510" y="790" width="370" height="245" rx="6" fill="#FFF4E0" stroke="#D4AF37" stroke-width="1.5"/>
<text x="525" y="813" font-family="Georgia, serif" font-size="13" fill="#2A1200" font-weight="bold" letter-spacing="1">DESIGN NOTES</text>
<text x="525" y="835" font-family="Georgia, serif" font-size="11" fill="#5A3A1A">• Age: 6–8 years. Head-to-body ratio ~1:5 (child)</text>
<text x="525" y="853" font-family="Georgia, serif" font-size="11" fill="#5A3A1A">• Traditional Kumari dress: deep crimson with gold</text>
<text x="525" y="871" font-family="Georgia, serif" font-size="11" fill="#5A3A1A">• Formal Kumari kohl makeup — NOT frightening</text>
<text x="525" y="889" font-family="Georgia, serif" font-size="11" fill="#5A3A1A">• Elaborate crown/hair ornament — always present</text>
<text x="525" y="907" font-family="Georgia, serif" font-size="11" fill="#5A3A1A">• Walk: slow, deliberate, ritualistically calm</text>
<text x="525" y="925" font-family="Georgia, serif" font-size="11" fill="#5A3A1A">• Glow: softer than Taleju's — warm, not blinding</text>
<text x="525" y="943" font-family="Georgia, serif" font-size="11" fill="#5A3A1A">• NEVER sexualized — pure, protected framing only</text>
<text x="525" y="961" font-family="Georgia, serif" font-size="11" fill="#5A3A1A">• Token held with both hands, at chest level</text>
<text x="525" y="991" font-family="Georgia, serif" font-size="12" fill="#880818" font-style="italic">Arc: silent entrance → hope given → peace restored</text>

<!-- PALETTE -->
<rect x="0" y="1210" width="900" height="90" fill="#1A0800"/>
<text x="450" y="1234" font-family="Georgia, serif" font-size="12" fill="#D4AF37" text-anchor="middle" letter-spacing="3">CHARACTER PALETTE</text>
<rect x="40" y="1245" width="55" height="40" rx="4" fill="#C89870"/>
<text x="67" y="1297" font-family="Georgia, serif" font-size="9" fill="#D4AF37" text-anchor="middle">SKIN</text>
<text x="67" y="1308" font-family="Georgia, serif" font-size="8" fill="#A08040" text-anchor="middle">#C89870</text>
<rect x="120" y="1245" width="55" height="40" rx="4" fill="#C01020"/>
<text x="147" y="1297" font-family="Georgia, serif" font-size="9" fill="#D4AF37" text-anchor="middle">DRESS</text>
<text x="147" y="1308" font-family="Georgia, serif" font-size="8" fill="#A08040" text-anchor="middle">#C01020</text>
<rect x="200" y="1245" width="55" height="40" rx="4" fill="#880818"/>
<text x="227" y="1297" font-family="Georgia, serif" font-size="9" fill="#D4AF37" text-anchor="middle">DARK RED</text>
<text x="227" y="1308" font-family="Georgia, serif" font-size="8" fill="#A08040" text-anchor="middle">#880818</text>
<rect x="280" y="1245" width="55" height="40" rx="4" fill="#D4AF37"/>
<text x="307" y="1297" font-family="Georgia, serif" font-size="9" fill="#D4AF37" text-anchor="middle">GOLD</text>
<text x="307" y="1308" font-family="Georgia, serif" font-size="8" fill="#A08040" text-anchor="middle">#D4AF37</text>
<rect x="360" y="1245" width="55" height="40" rx="4" fill="#FFD060"/>
<text x="387" y="1297" font-family="Georgia, serif" font-size="9" fill="#D4AF37" text-anchor="middle">AURA</text>
<text x="387" y="1308" font-family="Georgia, serif" font-size="8" fill="#A08040" text-anchor="middle">#FFD060</text>
<rect x="440" y="1245" width="55" height="40" rx="4" fill="#0A0400"/>
<text x="467" y="1297" font-family="Georgia, serif" font-size="9" fill="#D4AF37" text-anchor="middle">KOHL</text>
<text x="467" y="1308" font-family="Georgia, serif" font-size="8" fill="#A08040" text-anchor="middle">#0A0400</text>
<rect x="520" y="1245" width="55" height="40" rx="4" fill="#C0392B"/>
<text x="547" y="1297" font-family="Georgia, serif" font-size="9" fill="#D4AF37" text-anchor="middle">BINDI</text>
<text x="547" y="1308" font-family="Georgia, serif" font-size="8" fill="#A08040" text-anchor="middle">#C0392B</text>
<rect x="600" y="1245" width="55" height="40" rx="4" fill="#FFF0D0"/>
<text x="627" y="1297" font-family="Georgia, serif" font-size="9" fill="#D4AF37" text-anchor="middle">LOTUS</text>
<text x="627" y="1308" font-family="Georgia, serif" font-size="8" fill="#A08040" text-anchor="middle">#FFF0D0</text>
<rect x="680" y="1245" width="55" height="40" rx="4" fill="#FFE890"/>
<text x="707" y="1297" font-family="Georgia, serif" font-size="9" fill="#D4AF37" text-anchor="middle">GLOW</text>
<text x="707" y="1308" font-family="Georgia, serif" font-size="8" fill="#A08040" text-anchor="middle">#FFE890</text>
<rect x="760" y="1245" width="55" height="40" rx="4" fill="#1A0800"/>
<text x="787" y="1297" font-family="Georgia, serif" font-size="9" fill="#D4AF37" text-anchor="middle">HAIR</text>
<text x="787" y="1308" font-family="Georgia, serif" font-size="8" fill="#A08040" text-anchor="middle">#1A0800</text>

</svg>
