<?xml version="1.0" encoding="UTF-8"?>
<svg xmlns="http://www.w3.org/2000/svg" width="900" height="1300" viewBox="0 0 900 1300">
<defs>
  <filter id="dissolveNoise">
    <feTurbulence type="fractalNoise" baseFrequency="0.08" numOctaves="4" result="noise"/>
    <feDisplacementMap in="SourceGraphic" in2="noise" scale="5" xChannelSelector="R" yChannelSelector="G"/>
  </filter>
  <pattern id="caustics" x="0" y="0" width="50" height="50" patternUnits="userSpaceOnUse">
    <path d="M0,25 Q12,10 25,25 T50,25" stroke="#FFF" stroke-width="0.5" fill="none" opacity="0.15"/>
    <path d="M0,10 Q15,30 30,10 T50,10" stroke="#FFF" stroke-width="0.3" fill="none" opacity="0.1"/>
  </pattern>
  <radialGradient id="aura" cx="50%" cy="45%" r="52%">
    <stop offset="0%" stop-color="#FFF8E8" stop-opacity="0.9"/>
    <stop offset="60%" stop-color="#F5E8A8" stop-opacity="0.5"/>
    <stop offset="100%" stop-color="#D4AF37" stop-opacity="0"/>
  </radialGradient>
  <radialGradient id="skinT" cx="50%" cy="38%" r="58%">
    <stop offset="0%" stop-color="#FDF4E0"/> <!-- Luminous core -->
    <stop offset="40%" stop-color="#F0E0C0"/>
    <stop offset="100%" stop-color="#D4B888"/>
  </radialGradient>
  <radialGradient id="skinWarm" cx="50%" cy="50%" r="50%">
    <stop offset="0%" stop-color="#D47050" stop-opacity="0.25"/>
    <stop offset="100%" stop-color="#D47050" stop-opacity="0"/>
  </radialGradient>
  <radialGradient id="glowBg" cx="50%" cy="50%" r="50%">
    <stop offset="0%" stop-color="#FFFAE0"/>
    <stop offset="100%" stop-color="#F0E8C8"/>
  </radialGradient>
  <linearGradient id="bgT" x1="0%" y1="0%" x2="0%" y2="100%">
    <stop offset="0%" stop-color="#F8F2E0"/>
    <stop offset="100%" stop-color="#EDE4C8"/>
  </linearGradient>
  <filter id="glow">
    <feGaussianBlur stdDeviation="4" result="blur"/>
    <feMerge><feMergeNode in="blur"/><feMergeNode in="SourceGraphic"/></feMerge>
  </filter>
</defs>

<!-- Background -->
<rect width="900" height="1300" fill="url(#bgT)"/>
<rect x="0" y="0" width="900" height="6" fill="#8B7020"/>
<rect x="0" y="1294" width="900" height="6" fill="#8B7020"/>

<!-- Header -->
<rect x="0" y="0" width="900" height="95" fill="#1A1400"/>
<text x="450" y="42" font-family="Georgia, serif" font-size="28" fill="#F4D860" text-anchor="middle" letter-spacing="6">TALEJU — THE GODDESS</text>
<text x="450" y="72" font-family="Georgia, serif" font-size="15" fill="#A09040" text-anchor="middle" letter-spacing="3">CHARACTER REFERENCE SHEET — THE KING'S REGRET</text>

<!-- ═══════════════════════════════ AURA GLOW ═══════════════════════════════ -->
<!-- Outer aura rings -->
<ellipse cx="280" cy="430" rx="230" ry="420" fill="#FFE87A" opacity="0.06"/>
<ellipse cx="280" cy="430" rx="195" ry="360" fill="#FFE87A" opacity="0.08"/>
<ellipse cx="280" cy="430" rx="160" ry="300" fill="#FFF0A0" opacity="0.10"/>
<ellipse cx="280" cy="430" rx="125" ry="240" fill="#FFF8C8" opacity="0.14"/>

<!-- Light rays from figure -->
<path d="M280,200 L200,110" stroke="#FFE87A" stroke-width="2" opacity="0.3"/>
<path d="M280,200 L160,160" stroke="#FFE87A" stroke-width="1.5" opacity="0.25"/>
<path d="M280,200 L360,110" stroke="#FFE87A" stroke-width="2" opacity="0.3"/>
<path d="M280,200 L400,160" stroke="#FFE87A" stroke-width="1.5" opacity="0.25"/>
<path d="M280,200 L280,105" stroke="#FFE87A" stroke-width="2.5" opacity="0.35"/>

<!-- ═══════════════════════════════ MAIN FIGURE ═══════════════════════════════ -->

<!-- Shadow (very soft) -->
<ellipse cx="285" cy="878" rx="90" ry="12" fill="#D4C890" opacity="0.4"/>

<!-- LOWER GARMENT — flowing, layered -->
<!-- Back layer -->
<path d="M155,540 Q130,680 145,875 L415,875 Q430,680 405,540 Z" fill="#E8D890" opacity="0.6"/>
<!-- Middle layer -->
<path d="M170,540 Q148,690 162,875 L398,875 Q412,690 390,540 Z" fill="#F0E8B0"/>
<!-- Caustic pattern overlay -->
<path d="M155,540 Q130,680 145,875 L415,875 Q430,680 405,540 Z" fill="url(#caustics)" opacity="0.3"/>
<!-- Front layer edges (flowing) -->
<path d="M185,540 Q200,620 175,875" fill="none" stroke="#D4AF37" stroke-width="1.5" opacity="0.6"/>
<path d="M375,540 Q360,620 385,875" fill="none" stroke="#D4AF37" stroke-width="1.5" opacity="0.6"/>
<!-- Hem gold border -->
<path d="M148,848 Q280,862 412,848" stroke="#D4AF37" stroke-width="5" fill="none"/>
<path d="M148,858 Q280,872 412,858" stroke="#D4AF37" stroke-width="2" fill="none"/>
<!-- Hem pattern dots -->
<circle cx="175" cy="843" r="3" fill="#D4AF37"/>
<circle cx="195" cy="840" r="3" fill="#D4AF37"/>
<circle cx="215" cy="843" r="3" fill="#D4AF37"/>
<circle cx="235" cy="840" r="3" fill="#D4AF37"/>
<circle cx="255" cy="843" r="3" fill="#D4AF37"/>
<circle cx="275" cy="840" r="3" fill="#D4AF37"/>
<circle cx="295" cy="843" r="3" fill="#D4AF37"/>
<circle cx="315" cy="840" r="3" fill="#D4AF37"/>
<circle cx="335" cy="843" r="3" fill="#D4AF37"/>
<circle cx="355" cy="840" r="3" fill="#D4AF37"/>
<circle cx="375" cy="843" r="3" fill="#D4AF37"/>

<!-- FEET (just visible) -->
<ellipse cx="228" cy="872" rx="28" ry="10" fill="#D4B888" opacity="0.7"/>
<ellipse cx="320" cy="872" rx="25" ry="10" fill="#C8AA7C" opacity="0.7"/>

<!-- SHAWL / DRAPE — flowing right -->
<path d="M350,310 Q430,360 460,450 Q470,540 455,620 Q440,680 420,720" stroke="#D4AF37" stroke-width="18" fill="none" stroke-linecap="round" opacity="0.7"/>
<path d="M350,310 Q430,360 460,450 Q470,540 455,620 Q440,680 420,720" stroke="#F5E890" stroke-width="12" fill="none" stroke-linecap="round" opacity="0.6"/>

<!-- LEFT SHAWL DRAPE -->
<path d="M145,320 Q100,380 92,470 Q88,540 105,610" stroke="#D4AF37" stroke-width="14" fill="none" stroke-linecap="round" opacity="0.6"/>
<path d="M145,320 Q100,380 92,470 Q88,540 105,610" stroke="#F5E890" stroke-width="8" fill="none" stroke-linecap="round" opacity="0.5"/>

<!-- ARMS -->
<!-- Right arm (viewer left) — gracefully extended -->
<path d="M188,330 Q155,400 145,480" stroke="#E8D0A0" stroke-width="32" fill="none" stroke-linecap="round"/>
<path d="M188,330 Q155,400 145,480" stroke="#F0DDB0" stroke-width="24" fill="none" stroke-linecap="round"/>
<!-- Arm glow -->
<path d="M188,330 Q155,400 145,480" stroke="#FFE87A" stroke-width="10" fill="none" stroke-linecap="round" opacity="0.3"/>

<!-- Left arm (viewer right) -->
<path d="M372,330 Q408,400 418,480" stroke="#E8D0A0" stroke-width="32" fill="none" stroke-linecap="round"/>
<path d="M372,330 Q408,400 418,480" stroke="#F0DDB0" stroke-width="24" fill="none" stroke-linecap="round"/>
<path d="M372,330 Q408,400 418,480" stroke="#FFE87A" stroke-width="10" fill="none" stroke-linecap="round" opacity="0.3"/>

<!-- HANDS -->
<!-- Right hand — open, graceful -->
<ellipse cx="138" cy="493" rx="20" ry="14" fill="#D4B888"/>
<circle cx="145" cy="495" r="7" fill="url(#skinWarm)"/> <!-- SSS detail -->
<path d="M124,484 Q114,467 120,459" stroke="#D4B888" stroke-width="8" fill="none" stroke-linecap="round"/>
<path d="M133,480 Q125,462 131,454" stroke="#D4B888" stroke-width="8" fill="none" stroke-linecap="round"/>
<path d="M143,478 Q138,460 145,452" stroke="#D4B888" stroke-width="8" fill="none" stroke-linecap="round"/>
<path d="M152,480 Q150,463 157,457" stroke="#D4B888" stroke-width="8" fill="none" stroke-linecap="round"/>
<!-- Light trails from fingers -->
<path d="M120,459 Q112,445 115,435" stroke="#FFE87A" stroke-width="2" fill="none" opacity="0.6"/>
<path d="M131,454 Q126,440 130,430" stroke="#FFE87A" stroke-width="2" fill="none" opacity="0.6"/>
<path d="M145,452 Q142,438 147,428" stroke="#FFE87A" stroke-width="2" fill="none" opacity="0.5"/>

<!-- Left hand -->
<ellipse cx="425" cy="493" rx="20" ry="14" fill="#D4B888"/>
<circle cx="418" cy="495" r="7" fill="url(#skinWarm)"/> <!-- SSS detail -->
<path d="M439,484 Q449,467 443,459" stroke="#D4B888" stroke-width="8" fill="none" stroke-linecap="round"/>
<path d="M430,480 Q438,462 432,454" stroke="#D4B888" stroke-width="8" fill="none" stroke-linecap="round"/>
<path d="M420,478 Q425,460 418,452" stroke="#D4B888" stroke-width="8" fill="none" stroke-linecap="round"/>
<path d="M411,480 Q410,463 403,457" stroke="#D4B888" stroke-width="8" fill="none" stroke-linecap="round"/>

<!-- TORSO / UPPER GARMENT -->
<path d="M195,305 L185,540 L375,540 L365,305 Q340,322 280,316 Q218,322 195,305 Z" fill="#F0E8A8"/>
<!-- Torso glow overlay -->
<path d="M195,305 L185,540 L375,540 L365,305 Q340,322 280,316 Q218,322 195,305 Z" fill="url(#aura)" opacity="0.4"/>
<!-- Caustics overlay -->
<path d="M195,305 L185,540 L375,540 L365,305 Z" fill="url(#caustics)" opacity="0.2"/>
<!-- Garment border gold -->
<path d="M195,305 L185,540" stroke="#D4AF37" stroke-width="3" fill="none"/>
<path d="M365,305 L375,540" stroke="#D4AF37" stroke-width="3" fill="none"/>
<!-- Chest panel ornament -->
<path d="M255,325 Q280,340 305,325 L305,430 Q280,445 255,430 Z" fill="none" stroke="#D4AF37" stroke-width="1.5" opacity="0.7"/>
<circle cx="280" cy="355" r="8" fill="#D4AF37" opacity="0.8"/>
<circle cx="280" cy="355" r="5" fill="#FFE87A"/>
<!-- Waist sash gold -->
<rect x="188" y="515" width="185" height="18" rx="3" fill="#D4AF37" opacity="0.7"/>
<rect x="190" y="518" width="181" height="6" fill="#FFE87A" opacity="0.5"/>

<!-- NECK -->
<path d="M258,270 Q250,285 250,300 L310,300 Q310,285 302,270 Z" fill="#D4B888"/>
<!-- Neck glow -->
<path d="M258,270 Q250,285 250,300 L310,300 Q310,285 302,270 Z" fill="#FFE87A" opacity="0.15"/>

<!-- NECKLACE -->
<path d="M222,294 Q252,312 280,306 Q308,312 338,294" stroke="#D4AF37" stroke-width="4.5" fill="none"/>
<circle cx="280" cy="310" r="7" fill="#D4AF37"/>
<circle cx="280" cy="310" r="4" fill="#FFE060"/>
<circle cx="264" cy="304" r="4.5" fill="#D4AF37"/>
<circle cx="296" cy="304" r="4.5" fill="#D4AF37"/>
<!-- Necklace glow -->
<path d="M222,294 Q252,312 280,306 Q308,312 338,294" stroke="#FFE87A" stroke-width="6" fill="none" opacity="0.3"/>

<!-- HEAD -->
<!-- Aura glow behind head -->
<circle cx="280" cy="195" r="115" fill="#FFE87A" opacity="0.18"/>
<circle cx="280" cy="195" r="90" fill="#FFF4C0" opacity="0.22"/>

<!-- HEAD BASE -->
<ellipse cx="280" cy="195" rx="72" ry="82" fill="url(#skinT)"/>
<!-- Subtle divine glow on face -->
<ellipse cx="280" cy="185" rx="60" ry="65" fill="#FFF8E0" opacity="0.12"/>

<!-- EARS -->
<ellipse cx="208" cy="198" rx="12" ry="16" fill="#D4B888"/>
<circle cx="214" cy="198" r="6" fill="url(#skinWarm)"/> <!-- SSS detail -->
<!-- Elaborate earring -->
<circle cx="208" cy="212" r="8" fill="#D4AF37"/>
<circle cx="208" cy="212" r="5" fill="#FFE060"/>
<path d="M204,220 Q208,232 208,240" stroke="#D4AF37" stroke-width="2.5" fill="none"/>
<circle cx="208" cy="242" r="5" fill="#D4AF37"/>
<circle cx="208" cy="242" r="3" fill="#FFE060"/>

<ellipse cx="352" cy="198" rx="12" ry="16" fill="#D4B888"/>
<circle cx="346" cy="198" r="6" fill="url(#skinWarm)"/> <!-- SSS detail -->
<circle cx="352" cy="212" r="8" fill="#D4AF37"/>
<circle cx="352" cy="212" r="5" fill="#FFE060"/>
<path d="M348,220 Q352,232 352,240" stroke="#D4AF37" stroke-width="2.5" fill="none"/>
<circle cx="352" cy="242" r="5" fill="#D4AF37"/>
<circle cx="352" cy="242" r="3" fill="#FFE060"/>

<!-- HAIR / BASE -->
<path d="M210,165 Q220,140 245,128 Q265,118 280,116" fill="#1A0A00"/>
<path d="M350,165 Q340,140 315,128 Q295,118 280,116" fill="#1A0A00"/>

<!-- HEADDRESS / MUKUT (elaborate goddess crown) -->
<!-- Base band -->
<rect x="215" y="118" width="130" height="20" rx="3" fill="#C8A000"/>
<rect x="217" y="120" width="126" height="16" rx="2" fill="#D4AF37"/>
<!-- Band gems -->
<circle cx="245" cy="128" r="5" fill="#2ECC71"/>
<circle cx="265" cy="128" r="4" fill="#E74C3C"/>
<circle cx="280" cy="128" r="5.5" fill="#3498DB"/>
<circle cx="295" cy="128" r="4" fill="#E74C3C"/>
<circle cx="315" cy="128" r="5" fill="#2ECC71"/>
<!-- Crown upper tier -->
<path d="M228,118 L220,92 L238,72 L258,58 L280,50 L302,58 L322,72 L340,92 L332,118 Z" fill="#C8A000"/>
<path d="M230,118 L223,94 L240,75 L260,61 L280,54 L300,61 L320,75 L337,94 L330,118 Z" fill="#D4AF37"/>
<!-- Upper crown gems -->
<circle cx="252" cy="82" r="6" fill="#E74C3C"/>
<circle cx="280" cy="62" r="7.5" fill="#3498DB"/>
<circle cx="308" cy="82" r="6" fill="#2ECC71"/>
<!-- Crown top finial -->
<path d="M276,50 L280,26 L284,50 Z" fill="#D4AF37"/>
<circle cx="280" cy="22" r="8" fill="#D4AF37"/>
<circle cx="280" cy="22" r="5" fill="#FFE060"/>
<circle cx="280" cy="22" r="2.5" fill="white"/>
<!-- Crown glow -->
<ellipse cx="280" cy="80" rx="70" ry="50" fill="#FFE87A" opacity="0.15"/>
<!-- Side ornaments -->
<path d="M220,130 Q198,125 188,135" stroke="#D4AF37" stroke-width="3" fill="none"/>
<circle cx="185" cy="138" r="6" fill="#D4AF37"/>
<circle cx="175" cy="145" r="4" fill="#D4AF37"/>
<path d="M340,130 Q362,125 372,135" stroke="#D4AF37" stroke-width="3" fill="none"/>
<circle cx="375" cy="138" r="6" fill="#D4AF37"/>
<circle cx="385" cy="145" r="4" fill="#D4AF37"/>

<!-- FACE FEATURES -->
<!-- Eyebrows — elegant, slightly arched -->
<path d="M237,164 Q252,156 268,160" stroke="#2A1500" stroke-width="4" fill="none" stroke-linecap="round"/>
<path d="M292,160 Q308,156 323,164" stroke="#2A1500" stroke-width="4" fill="none" stroke-linecap="round"/>

<!-- RIGHT EYE — large, divine, kohl-lined -->
<ellipse cx="252" cy="180" rx="16" ry="11" fill="white"/>
<ellipse cx="253" cy="180" rx="12" ry="10" fill="#000"/> <!-- Limbal ring -->
<ellipse cx="253" cy="180" rx="11" ry="9" fill="#2A1800"/> <!-- Iris -->
<circle cx="254" cy="178" r="5.5" fill="#0A0400"/> <!-- Pupil -->
<circle cx="255" cy="175" r="3.5" fill="white" opacity="0.3"/> <!-- Soft highlight -->
<circle cx="257" cy="175" r="2" fill="white" opacity="0.95"/> <!-- Sharp specular -->
<!-- Kohl liner -->
<path d="M236,177 Q252,169 268,177" stroke="#0A0400" stroke-width="2" fill="none"/>
<path d="M236,183 Q252,190 268,183" stroke="#0A0400" stroke-width="1.5" fill="none"/>
<!-- Kohl flick -->
<path d="M236,177 Q228,173 224,168" stroke="#0A0400" stroke-width="2" fill="none"/>

<!-- LEFT EYE -->
<ellipse cx="308" cy="180" rx="16" ry="11" fill="white"/>
<ellipse cx="309" cy="180" rx="12" ry="10" fill="#000"/> <!-- Limbal ring -->
<ellipse cx="309" cy="180" rx="11" ry="9" fill="#2A1800"/> <!-- Iris -->
<circle cx="310" cy="178" r="5.5" fill="#0A0400"/> <!-- Pupil -->
<circle cx="311" cy="175" r="3.5" fill="white" opacity="0.3"/> <!-- Soft highlight -->
<circle cx="313" cy="175" r="2" fill="white" opacity="0.95"/> <!-- Sharp specular -->
<path d="M292,177 Q308,169 324,177" stroke="#0A0400" stroke-width="2" fill="none"/>
<path d="M292,183 Q308,190 324,183" stroke="#0A0400" stroke-width="1.5" fill="none"/>
<path d="M324,177 Q332,173 336,168" stroke="#0A0400" stroke-width="2" fill="none"/>

<!-- EYE GLOW (divine) -->
<ellipse cx="252" cy="180" rx="18" ry="13" fill="#FFE87A" opacity="0.12"/>
<ellipse cx="308" cy="180" rx="18" ry="13" fill="#FFE87A" opacity="0.12"/>

<!-- NOSE — refined -->
<path d="M280,188 L275,207 Q280,213 285,207 L280,188" fill="#C8A070"/>
<circle cx="280" cy="207" r="4.5" fill="url(#skinWarm)"/> <!-- SSS detail -->
<ellipse cx="274" cy="208" rx="6" ry="4" fill="#C09060"/>
<ellipse cx="286" cy="208" rx="6" ry="4" fill="#C09060"/>

<!-- MOUTH — serene, slightly full -->
<path d="M265,224 Q280,232 295,224" stroke="#B06840" stroke-width="2.5" fill="none" stroke-linecap="round"/>
<path d="M268,227 Q280,236 292,227" fill="#C07850" opacity="0.5"/>
<path d="M273,224 Q280,227 287,224" stroke="#FFB870" stroke-width="1" fill="none" opacity="0.5"/>

<!-- BINDI -->
<circle cx="280" cy="155" r="8" fill="#C0392B"/>
<circle cx="280" cy="155" r="5" fill="#E74C3C"/>
<!-- Elaborate decorative bindi lines -->
<path d="M280,147 L280,140" stroke="#D4AF37" stroke-width="2" fill="none"/>
<path d="M276,149 L272,144" stroke="#D4AF37" stroke-width="1.5" fill="none"/>
<path d="M284,149 L288,144" stroke="#D4AF37" stroke-width="1.5" fill="none"/>

<!-- Cheek glow (divine luminescence) -->
<circle cx="235" cy="198" r="18" fill="#FFE87A" opacity="0.15"/>
<circle cx="325" cy="198" r="18" fill="#FFE87A" opacity="0.15"/>

<!-- ═══════════════════════════════ EXPRESSIONS ═══════════════════════════════ -->
<text x="590" y="135" font-family="Georgia, serif" font-size="14" fill="#6A5010" text-anchor="middle" letter-spacing="2">EXPRESSION STUDIES</text>
<line x1="510" y1="145" x2="670" y2="145" stroke="#C8A060" stroke-width="1"/>

<!-- Expr 1: COMPASSION (Act 1) -->
<circle cx="560" cy="230" r="72" fill="#FFFAE0" stroke="#D4AF37" stroke-width="2"/>
<ellipse cx="560" cy="230" rx="60" ry="62" fill="#FFE87A" opacity="0.15"/>
<text x="560" y="318" font-family="Georgia, serif" font-size="11" fill="#6A5010" text-anchor="middle">COMPASSION</text>
<text x="560" y="332" font-family="Georgia, serif" font-size="9" fill="#A08030" text-anchor="middle">Act 1 · warm, radiant</text>
<ellipse cx="560" cy="218" rx="42" ry="50" fill="url(#skinT)"/>
<ellipse cx="545" cy="208" rx="13" ry="10" fill="white"/>
<circle cx="545" cy="208" r="8" fill="#2A1800"/>
<circle cx="546" cy="205" r="4" fill="#0A0400"/>
<circle cx="549" cy="203" r="2" fill="white"/>
<ellipse cx="575" cy="208" rx="13" ry="10" fill="white"/>
<circle cx="575" cy="208" r="8" fill="#2A1800"/>
<circle cx="576" cy="205" r="4" fill="#0A0400"/>
<circle cx="579" cy="203" r="2" fill="white"/>
<path d="M533,196 Q545,190 558,194" stroke="#2A1500" stroke-width="3.5" fill="none" stroke-linecap="round"/>
<path d="M562,194 Q575,190 587,196" stroke="#2A1500" stroke-width="3.5" fill="none" stroke-linecap="round"/>
<path d="M547,238 Q560,246 573,238" stroke="#B06840" stroke-width="3" fill="none" stroke-linecap="round"/>
<path d="M560,215 L556,229 Q560,233 564,229 L560,215" fill="#C8A070"/>
<circle cx="560" cy="180" r="5.5" fill="#C0392B"/>
<circle cx="232" cy="222" r="10" fill="#FFE87A" opacity="0.3"/>
<circle cx="290" cy="222" r="10" fill="#FFE87A" opacity="0.3"/>

<!-- Expr 2: RECOIL/HURT (1:40) -->
<circle cx="680" cy="230" r="72" fill="#E8E4D8" stroke="#8A7A50" stroke-width="2"/>
<text x="680" y="318" font-family="Georgia, serif" font-size="11" fill="#4A3A10" text-anchor="middle">RECOIL / HURT</text>
<text x="680" y="332" font-family="Georgia, serif" font-size="9" fill="#8A7A50" text-anchor="middle">Act 2 · 1:40</text>
<ellipse cx="680" cy="218" rx="42" ry="50" fill="url(#skinT)"/>
<ellipse cx="680" cy="218" rx="42" ry="50" fill="#B0A880" opacity="0.1"/>
<!-- Pained, wide eyes -->
<ellipse cx="665" cy="208" rx="13" ry="11" fill="white"/>
<circle cx="664" cy="210" r="8" fill="#2A1800"/>
<circle cx="663" cy="208" r="4" fill="#0A0400"/>
<circle cx="661" cy="206" r="2" fill="white"/>
<ellipse cx="695" cy="208" rx="13" ry="11" fill="white"/>
<circle cx="694" cy="210" r="8" fill="#2A1800"/>
<circle cx="693" cy="208" r="4" fill="#0A0400"/>
<circle cx="691" cy="206" r="2" fill="white"/>
<!-- Raised hurt brows -->
<path d="M653,196 Q665,189 677,194" stroke="#2A1500" stroke-width="3.5" fill="none" stroke-linecap="round"/>
<path d="M683,194 Q695,189 707,196" stroke="#2A1500" stroke-width="3.5" fill="none" stroke-linecap="round"/>
<!-- Slight frown of hurt -->
<path d="M668,240 Q680,235 692,240" stroke="#B06840" stroke-width="3" fill="none" stroke-linecap="round"/>
<path d="M680,215 L676,229 Q680,233 684,229 L680,215" fill="#C8A070"/>
<!-- Head tilted slightly back (recoiling) -->
<path d="M660,168 Q672,160 682,162" stroke="#2A1500" stroke-width="2" fill="none" opacity="0.5"/>

<!-- Expr 3: FADING (1:53) -->
<circle cx="560" cy="400" r="72" fill="#F0EDE0" stroke="#C8B878" stroke-width="2"/>
<text x="560" y="488" font-family="Georgia, serif" font-size="11" fill="#6A5010" text-anchor="middle">DIVINE FADING</text>
<text x="560" y="502" font-family="Georgia, serif" font-size="9" fill="#A08030" text-anchor="middle">Act 2 · 1:53–2:19</text>
<!-- Translucent / dissolving face with noise filter -->
<g filter="url(#dissolveNoise)">
  <ellipse cx="560" cy="388" rx="42" ry="50" fill="url(#skinT)" opacity="0.5"/>
  <ellipse cx="560" cy="388" rx="42" ry="50" fill="#FFE87A" opacity="0.25"/>
</g>
<ellipse cx="545" cy="378" rx="12" ry="9" fill="white" opacity="0.7"/>
<circle cx="545" cy="380" r="7" fill="#2A1800" opacity="0.6"/>
<circle cx="546" cy="378" r="3.5" fill="#0A0400" opacity="0.5"/>
<ellipse cx="575" cy="378" rx="12" ry="9" fill="white" opacity="0.7"/>
<circle cx="575" cy="380" r="7" fill="#2A1800" opacity="0.6"/>
<circle cx="576" cy="378" r="3.5" fill="#0A0400" opacity="0.5"/>
<path d="M533,367 Q545,361 558,365" stroke="#2A1500" stroke-width="3" fill="none" stroke-linecap="round" opacity="0.7"/>
<path d="M562,365 Q575,361 587,367" stroke="#2A1500" stroke-width="3" fill="none" stroke-linecap="round" opacity="0.7"/>
<!-- Serene, accepting mouth -->
<path d="M548,410 Q560,416 572,410" stroke="#B06840" stroke-width="2.5" fill="none" stroke-linecap="round" opacity="0.7"/>
<!-- Dissolve particles -->
<circle cx="600" cy="370" r="3" fill="#FFE87A" opacity="0.7"/>
<circle cx="612" cy="355" r="2" fill="#FFE87A" opacity="0.5"/>
<circle cx="605" cy="382" r="2.5" fill="#FFE87A" opacity="0.6"/>
<circle cx="618" cy="368" r="2" fill="#FFE87A" opacity="0.4"/>
<circle cx="522" cy="362" r="3" fill="#FFE87A" opacity="0.6"/>
<circle cx="514" cy="375" r="2" fill="#FFE87A" opacity="0.5"/>
<path d="M560,350 L563,338 L565,325" stroke="#FFE87A" stroke-width="2" fill="none" opacity="0.5"/>

<!-- Expr 4: DREAM INSTRUCTION (3:00) -->
<circle cx="680" cy="400" r="72" fill="#EEEAF0" stroke="#A898C0" stroke-width="2"/>
<text x="680" y="488" font-family="Georgia, serif" font-size="11" fill="#4A3A60" text-anchor="middle">DREAM VISION</text>
<text x="680" y="502" font-family="Georgia, serif" font-size="9" fill="#8878A8" text-anchor="middle">Act 3 · 3:00 dream</text>
<!-- Ethereal mist-like appearance -->
<ellipse cx="680" cy="388" rx="42" ry="50" fill="url(#skinT)" opacity="0.6"/>
<ellipse cx="680" cy="388" rx="42" ry="50" fill="#D0C8E8" opacity="0.2"/>
<ellipse cx="665" cy="378" rx="13" ry="11" fill="white" opacity="0.85"/>
<circle cx="665" cy="380" r="8" fill="#2A1800" opacity="0.8"/>
<circle cx="665" cy="378" r="4" fill="#0A0400" opacity="0.7"/>
<circle cx="668" cy="376" r="2" fill="white"/>
<ellipse cx="695" cy="378" rx="13" ry="11" fill="white" opacity="0.85"/>
<circle cx="695" cy="380" r="8" fill="#2A1800" opacity="0.8"/>
<circle cx="695" cy="378" r="4" fill="#0A0400" opacity="0.7"/>
<circle cx="698" cy="376" r="2" fill="white"/>
<path d="M653,367 Q665,361 678,365" stroke="#2A1500" stroke-width="3.5" fill="none" stroke-linecap="round"/>
<path d="M682,365 Q695,361 707,367" stroke="#2A1500" stroke-width="3.5" fill="none" stroke-linecap="round"/>
<!-- Compassionate, instructing expression -->
<path d="M668,409 Q680,417 692,409" stroke="#B06840" stroke-width="3" fill="none" stroke-linecap="round"/>
<!-- Soft mist lines -->
<path d="M622,398 Q638,392 648,400" stroke="#C0B0D8" stroke-width="2" fill="none" opacity="0.5"/>
<path d="M625,410 Q635,405 644,410" stroke="#C0B0D8" stroke-width="1.5" fill="none" opacity="0.4"/>
<path d="M710,390 Q724,385 735,392" stroke="#C0B0D8" stroke-width="2" fill="none" opacity="0.5"/>

<!-- ═══════════════════════════════ DESIGN NOTES ═══════════════════════════════ -->
<line x1="510" y1="540" x2="880" y2="540" stroke="#C8A060" stroke-width="1"/>
<text x="530" y="570" font-family="Georgia, serif" font-size="13" fill="#2A1200" font-weight="bold" letter-spacing="1">DESIGN NOTES</text>
<text x="530" y="592" font-family="Georgia, serif" font-size="11" fill="#5A3A1A">• Skin: golden-warm, slightly luminous. Never harsh.</text>
<text x="530" y="610" font-family="Georgia, serif" font-size="11" fill="#5A3A1A">• Eyes: large, kohl-lined, with a divine light point</text>
<text x="530" y="628" font-family="Georgia, serif" font-size="11" fill="#5A3A1A">• Garments: white/cream with gold borders, flowing</text>
<text x="530" y="646" font-family="Georgia, serif" font-size="11" fill="#5A3A1A">• Aura: soft radial glow — always present, never sharp</text>
<text x="530" y="664" font-family="Georgia, serif" font-size="11" fill="#5A3A1A">• Light trails follow hand movements throughout</text>
<text x="530" y="682" font-family="Georgia, serif" font-size="11" fill="#5A3A1A">• Fading: dissolve UPWARD — not sideways, not downward</text>
<text x="530" y="700" font-family="Georgia, serif" font-size="11" fill="#5A3A1A">• Never punitive — even recoil reads as wounded, not angry</text>
<text x="530" y="718" font-family="Georgia, serif" font-size="11" fill="#5A3A1A">• Dream form: more translucent, edges soft-blurred</text>
<text x="530" y="748" font-family="Georgia, serif" font-size="12" fill="#8B7020" font-style="italic">Arc: Warmth → Hurt → Fading → Ethereal guidance</text>

<!-- PALETTE -->
<rect x="0" y="1210" width="900" height="90" fill="#1A1400"/>
<text x="450" y="1234" font-family="Georgia, serif" font-size="12" fill="#A09040" text-anchor="middle" letter-spacing="3">CHARACTER PALETTE</text>
<rect x="40" y="1245" width="55" height="40" rx="4" fill="#D4B888"/>
<text x="67" y="1297" font-family="Georgia, serif" font-size="9" fill="#A09040" text-anchor="middle">SKIN</text>
<text x="67" y="1308" font-family="Georgia, serif" font-size="8" fill="#807040" text-anchor="middle">#D4B888</text>
<rect x="120" y="1245" width="55" height="40" rx="4" fill="#F0E8A8"/>
<text x="147" y="1297" font-family="Georgia, serif" font-size="9" fill="#A09040" text-anchor="middle">GARMENT</text>
<text x="147" y="1308" font-family="Georgia, serif" font-size="8" fill="#807040" text-anchor="middle">#F0E8A8</text>
<rect x="200" y="1245" width="55" height="40" rx="4" fill="#D4AF37"/>
<text x="227" y="1297" font-family="Georgia, serif" font-size="9" fill="#A09040" text-anchor="middle">GOLD</text>
<text x="227" y="1308" font-family="Georgia, serif" font-size="8" fill="#807040" text-anchor="middle">#D4AF37</text>
<rect x="280" y="1245" width="55" height="40" rx="4" fill="#FFE87A"/>
<text x="307" y="1297" font-family="Georgia, serif" font-size="9" fill="#A09040" text-anchor="middle">AURA</text>
<text x="307" y="1308" font-family="Georgia, serif" font-size="8" fill="#807040" text-anchor="middle">#FFE87A</text>
<rect x="360" y="1245" width="55" height="40" rx="4" fill="#1A0A00"/>
<text x="387" y="1297" font-family="Georgia, serif" font-size="9" fill="#A09040" text-anchor="middle">KOHL</text>
<text x="387" y="1308" font-family="Georgia, serif" font-size="8" fill="#807040" text-anchor="middle">#1A0A00</text>
<rect x="440" y="1245" width="55" height="40" rx="4" fill="#E74C3C"/>
<text x="467" y="1297" font-family="Georgia, serif" font-size="9" fill="#A09040" text-anchor="middle">BINDI</text>
<text x="467" y="1308" font-family="Georgia, serif" font-size="8" fill="#807040" text-anchor="middle">#E74C3C</text>
<rect x="520" y="1245" width="55" height="40" rx="4" fill="#FFFFFF" stroke="#C8A060" stroke-width="1"/>
<text x="547" y="1297" font-family="Georgia, serif" font-size="9" fill="#A09040" text-anchor="middle">WHITES</text>
<text x="547" y="1308" font-family="Georgia, serif" font-size="8" fill="#807040" text-anchor="middle">#FFFFFF</text>
<rect x="600" y="1245" width="55" height="40" rx="4" fill="#D0C8E8"/>
<text x="627" y="1297" font-family="Georgia, serif" font-size="9" fill="#A09040" text-anchor="middle">DREAM</text>
<text x="627" y="1308" font-family="Georgia, serif" font-size="8" fill="#807040" text-anchor="middle">#D0C8E8</text>
<rect x="680" y="1245" width="55" height="40" rx="4" fill="#3498DB"/>
<text x="707" y="1297" font-family="Georgia, serif" font-size="9" fill="#A09040" text-anchor="middle">SAPPHIRE</text>
<text x="707" y="1308" font-family="Georgia, serif" font-size="8" fill="#807040" text-anchor="middle">#3498DB</text>
<rect x="760" y="1245" width="55" height="40" rx="4" fill="#2ECC71"/>
<text x="787" y="1297" font-family="Georgia, serif" font-size="9" fill="#A09040" text-anchor="middle">EMERALD</text>
<text x="787" y="1308" font-family="Georgia, serif" font-size="8" fill="#807040" text-anchor="middle">#2ECC71</text>
</svg>
