<svg xmlns="http://www.w3.org/2000/svg" width="1920" height="1080" viewBox="0 0 1920 1080">
  <!-- Warm Base Atmosphere -->
  <rect width="100%" height="100%" fill="#3D2205"/>

  <!-- PERSPECTIVE LAYOUT (Dolly-in state) -->

  <!-- Back Wall (Deeper, shifted down) -->
  <rect x="-100" y="0" width="2120" height="600" fill="#2A1508"/>

  <!-- Floor (Perspective expanded) -->
  <path d="M-200,1200 L700,600 L1220,600 L2120,1200 Z" fill="#4A2A08"/>

  <!-- Malla Sal-Wood Pillars (Moved outward) -->
  <rect x="50" y="0" width="150" height="650" fill="#1A0A00"/>
  <rect x="1720" y="0" width="150" height="650" fill="#1A0A00"/>

  <!-- Ankhijhyal (Lattice Window) Background (Larger) -->
  <rect x="760" y="50" width="400" height="500" rx="10" fill="#0A0502"/>
  <path d="M760,250 Q960,-100 1160,250 L1160,550 L760,550 Z" fill="#1A1005" opacity="0.8"/>

  <!-- King's Silhouette (Back/Side view - Left) -->
  <path d="M400,1080 Q350,800 450,650 Q500,550 600,600 Q650,700 650,850 L750,1080 Z" fill="#1A0A00" opacity="0.8"/>
  <circle cx="580" cy="580" r="60" fill="#1A0A00" opacity="0.8"/> <!-- Head -->

  <!-- Taleju's Silhouette (Front/Side view - Right) -->
  <path d="M1520,1080 Q1570,800 1470,650 Q1420,550 1320,600 Q1270,700 1270,850 L1170,1080 Z" fill="#2D1B00" opacity="0.7"/>
  <circle cx="1340" cy="580" r="55" fill="#2D1B00" opacity="0.7"/> <!-- Head -->
  <ellipse cx="1340" cy="580" rx="70" ry="80" fill="#FFE87A" opacity="0.1"/> <!-- Divine aura hint -->

  <!-- Central Low Table (Chokhat) Silhouette (Much larger, closer) -->
  <ellipse cx="960" cy="950" rx="550" ry="180" fill="#1A0A00" opacity="0.9"/>
  <ellipse cx="960" cy="930" rx="520" ry="160" fill="#3D2210"/>
  
  <!-- Table Surface Pattern (Dolly-in detail) -->
  <ellipse cx="960" cy="930" rx="450" ry="130" fill="none" stroke="#D4AF37" stroke-width="3" opacity="0.4"/>

  <!-- Gaddi Cushions (Moved with characters) -->
  <ellipse cx="550" cy="1000" rx="250" ry="80" fill="#6B1010" opacity="0.6"/>
  <ellipse cx="1370" cy="1000" rx="250" ry="80" fill="#6B1010" opacity="0.6"/>

  <!-- Production Data -->
  <rect x="0" y="1000" width="1920" height="80" fill="#000" opacity="0.7"/>
  <text x="50%" y="1055" font-family="Arial, serif" font-size="42" fill="#FFD060" text-anchor="middle" letter-spacing="4">SHOT 2: DOLLY TO TABLE — 0:05–0:15 — DEPTH ESTABLISH</text>
</svg>